<?xml version="1.0" standalone="no"?>
<!DOCTYPE svg PUBLIC "-//W3C//DTD SVG 20010904//EN"
 "http://www.w3.org/TR/2001/REC-SVG-20010904/DTD/svg10.dtd">
<svg version="1.0" xmlns="http://www.w3.org/2000/svg"
 width="640.000000pt" height="640.000000pt" viewBox="0 0 640.000000 640.000000"
 preserveAspectRatio="xMidYMid meet">
<metadata>
Created by potrace 1.14, written by Peter Selinger 2001-2017
</metadata>
<g transform="translate(0.000000,640.000000) scale(0.100000,-0.100000)"
fill="#000000" stroke="none">
<path d="M351 4983 c1 -23 2 -24 6 -6 2 12 12 24 21 26 12 3 10 5 -5 6 -19 1
-23 -4 -22 -26z"/>
<path d="M408 4993 c6 -2 18 -2 25 0 6 3 1 5 -13 5 -14 0 -19 -2 -12 -5z"/>
<path d="M468 4983 c7 -3 16 -2 19 1 4 3 -2 6 -13 5 -11 0 -14 -3 -6 -6z"/>
<path d="M518 4973 c7 -3 16 -2 19 1 4 3 -2 6 -13 5 -11 0 -14 -3 -6 -6z"/>
<path d="M558 4963 c6 -2 18 -2 25 0 6 3 1 5 -13 5 -14 0 -19 -2 -12 -5z"/>
<path d="M608 4953 c6 -2 18 -2 25 0 6 3 1 5 -13 5 -14 0 -19 -2 -12 -5z"/>
<path d="M342 4925 c0 -16 2 -22 5 -12 2 9 2 23 0 30 -3 6 -5 -1 -5 -18z"/>
<path d="M658 4943 c6 -2 18 -2 25 0 6 3 1 5 -13 5 -14 0 -19 -2 -12 -5z"/>
<path d="M708 4933 c6 -2 18 -2 25 0 6 3 1 5 -13 5 -14 0 -19 -2 -12 -5z"/>
<path d="M758 4923 c6 -2 18 -2 25 0 6 3 1 5 -13 5 -14 0 -19 -2 -12 -5z"/>
<path d="M808 4913 c6 -2 18 -2 25 0 6 3 1 5 -13 5 -14 0 -19 -2 -12 -5z"/>
<path d="M858 4903 c6 -2 18 -2 25 0 6 3 1 5 -13 5 -14 0 -19 -2 -12 -5z"/>
<path d="M908 4893 c6 -2 18 -2 25 0 6 3 1 5 -13 5 -14 0 -19 -2 -12 -5z"/>
<path d="M332 4865 c0 -16 2 -22 5 -12 2 9 2 23 0 30 -3 6 -5 -1 -5 -18z"/>
<path d="M963 4883 c9 -2 23 -2 30 0 6 3 -1 5 -18 5 -16 0 -22 -2 -12 -5z"/>
<path d="M1023 4873 c9 -2 25 -2 35 0 9 3 1 5 -18 5 -19 0 -27 -2 -17 -5z"/>
<path d="M1093 4863 c9 -2 25 -2 35 0 9 3 1 5 -18 5 -19 0 -27 -2 -17 -5z"/>
<path d="M1173 4853 c9 -2 23 -2 30 0 6 3 -1 5 -18 5 -16 0 -22 -2 -12 -5z"/>
<path d="M1243 4843 c9 -2 25 -2 35 0 9 3 1 5 -18 5 -19 0 -27 -2 -17 -5z"/>
<path d="M1313 4833 c9 -2 25 -2 35 0 9 3 1 5 -18 5 -19 0 -27 -2 -17 -5z"/>
<path d="M322 4810 c0 -14 2 -19 5 -12 2 6 2 18 0 25 -3 6 -5 1 -5 -13z"/>
<path d="M1383 4823 c9 -2 25 -2 35 0 9 3 1 5 -18 5 -19 0 -27 -2 -17 -5z"/>
<path d="M1463 4813 c9 -2 23 -2 30 0 6 3 -1 5 -18 5 -16 0 -22 -2 -12 -5z"/>
<path d="M1533 4803 c9 -2 25 -2 35 0 9 3 1 5 -18 5 -19 0 -27 -2 -17 -5z"/>
<path d="M1603 4793 c9 -2 25 -2 35 0 9 3 1 5 -18 5 -19 0 -27 -2 -17 -5z"/>
<path d="M1673 4783 c9 -2 25 -2 35 0 9 3 1 5 -18 5 -19 0 -27 -2 -17 -5z"/>
<path d="M1753 4773 c9 -2 23 -2 30 0 6 3 -1 5 -18 5 -16 0 -22 -2 -12 -5z"/>
<path d="M312 4750 c0 -14 2 -19 5 -12 2 6 2 18 0 25 -3 6 -5 1 -5 -13z"/>
<path d="M1823 4763 c9 -2 25 -2 35 0 9 3 1 5 -18 5 -19 0 -27 -2 -17 -5z"/>
<path d="M1893 4753 c9 -2 25 -2 35 0 9 3 1 5 -18 5 -19 0 -27 -2 -17 -5z"/>
<path d="M1963 4743 c9 -2 25 -2 35 0 9 3 1 5 -18 5 -19 0 -27 -2 -17 -5z"/>
<path d="M2043 4733 c9 -2 23 -2 30 0 6 3 -1 5 -18 5 -16 0 -22 -2 -12 -5z"/>
<path d="M2118 4723 c12 -2 30 -2 40 0 9 3 -1 5 -23 4 -22 0 -30 -2 -17 -4z"/>
<path d="M302 4695 c0 -16 2 -22 5 -12 2 9 2 23 0 30 -3 6 -5 -1 -5 -18z"/>
<path d="M2198 4713 c12 -2 30 -2 40 0 9 3 -1 5 -23 4 -22 0 -30 -2 -17 -4z"/>
<path d="M2283 4703 c9 -2 25 -2 35 0 9 3 1 5 -18 5 -19 0 -27 -2 -17 -5z"/>
<path d="M2368 4693 c12 -2 30 -2 40 0 9 3 -1 5 -23 4 -22 0 -30 -2 -17 -4z"/>
<path d="M2453 4683 c9 -2 25 -2 35 0 9 3 1 5 -18 5 -19 0 -27 -2 -17 -5z"/>
<path d="M2538 4673 c12 -2 30 -2 40 0 9 3 -1 5 -23 4 -22 0 -30 -2 -17 -4z"/>
<path d="M2623 4663 c9 -2 25 -2 35 0 9 3 1 5 -18 5 -19 0 -27 -2 -17 -5z"/>
<path d="M292 4635 c0 -16 2 -22 5 -12 2 9 2 23 0 30 -3 6 -5 -1 -5 -18z"/>
<path d="M2708 4653 c12 -2 30 -2 40 0 9 3 -1 5 -23 4 -22 0 -30 -2 -17 -4z"/>
<path d="M2793 4643 c9 -2 25 -2 35 0 9 3 1 5 -18 5 -19 0 -27 -2 -17 -5z"/>
<path d="M2873 4633 c9 -2 25 -2 35 0 9 3 1 5 -18 5 -19 0 -27 -2 -17 -5z"/>
<path d="M2958 4623 c12 -2 30 -2 40 0 9 3 -1 5 -23 4 -22 0 -30 -2 -17 -4z"/>
<path d="M3043 4613 c9 -2 25 -2 35 0 9 3 1 5 -18 5 -19 0 -27 -2 -17 -5z"/>
<path d="M3128 4603 c12 -2 30 -2 40 0 9 3 -1 5 -23 4 -22 0 -30 -2 -17 -4z"/>
<path d="M282 4580 c0 -14 2 -19 5 -12 2 6 2 18 0 25 -3 6 -5 1 -5 -13z"/>
<path d="M3218 4593 c12 -2 30 -2 40 0 9 3 -1 5 -23 4 -22 0 -30 -2 -17 -4z"/>
<path d="M3308 4583 c12 -2 32 -2 45 0 12 2 2 4 -23 4 -25 0 -35 -2 -22 -4z"/>
<path d="M3408 4573 c12 -2 32 -2 45 0 12 2 2 4 -23 4 -25 0 -35 -2 -22 -4z"/>
<path d="M3508 4563 c12 -2 32 -2 45 0 12 2 2 4 -23 4 -25 0 -35 -2 -22 -4z"/>
<path d="M3608 4553 c12 -2 32 -2 45 0 12 2 2 4 -23 4 -25 0 -35 -2 -22 -4z"/>
<path d="M3708 4543 c12 -2 32 -2 45 0 12 2 2 4 -23 4 -25 0 -35 -2 -22 -4z"/>
<path d="M272 4520 c0 -14 2 -19 5 -12 2 6 2 18 0 25 -3 6 -5 1 -5 -13z"/>
<path d="M3808 4533 c12 -2 32 -2 45 0 12 2 2 4 -23 4 -25 0 -35 -2 -22 -4z"/>
<path d="M3908 4523 c12 -2 32 -2 45 0 12 2 2 4 -23 4 -25 0 -35 -2 -22 -4z"/>
<path d="M4008 4513 c12 -2 32 -2 45 0 12 2 2 4 -23 4 -25 0 -35 -2 -22 -4z"/>
<path d="M4108 4503 c12 -2 32 -2 45 0 12 2 2 4 -23 4 -25 0 -35 -2 -22 -4z"/>
<path d="M4208 4493 c12 -2 32 -2 45 0 12 2 2 4 -23 4 -25 0 -35 -2 -22 -4z"/>
<path d="M4308 4483 c12 -2 30 -2 40 0 9 3 -1 5 -23 4 -22 0 -30 -2 -17 -4z"/>
<path d="M262 4460 c0 -14 2 -19 5 -12 2 6 2 18 0 25 -3 6 -5 1 -5 -13z"/>
<path d="M4408 4473 c12 -2 30 -2 40 0 9 3 -1 5 -23 4 -22 0 -30 -2 -17 -4z"/>
<path d="M4498 4463 c12 -2 32 -2 45 0 12 2 2 4 -23 4 -25 0 -35 -2 -22 -4z"/>
<path d="M4598 4453 c12 -2 32 -2 45 0 12 2 2 4 -23 4 -25 0 -35 -2 -22 -4z"/>
<path d="M4698 4443 c12 -2 32 -2 45 0 12 2 2 4 -23 4 -25 0 -35 -2 -22 -4z"/>
<path d="M4798 4433 c12 -2 30 -2 40 0 9 3 -1 5 -23 4 -22 0 -30 -2 -17 -4z"/>
<path d="M252 4405 c0 -16 2 -22 5 -12 2 9 2 23 0 30 -3 6 -5 -1 -5 -18z"/>
<path d="M4898 4423 c12 -2 30 -2 40 0 9 3 -1 5 -23 4 -22 0 -30 -2 -17 -4z"/>
<path d="M5003 4413 c15 -2 37 -2 50 0 12 2 0 4 -28 4 -27 0 -38 -2 -22 -4z"/>
<path d="M5137 4403 c18 -2 50 -2 70 0 21 2 7 4 -32 4 -38 0 -55 -2 -38 -4z"/>
<path d="M5317 4393 c18 -2 50 -2 70 0 21 2 7 4 -32 4 -38 0 -55 -2 -38 -4z"/>
<path d="M5487 4383 c18 -2 50 -2 70 0 21 2 7 4 -32 4 -38 0 -55 -2 -38 -4z"/>
<path d="M5663 4373 c20 -2 54 -2 75 0 20 2 3 4 -38 4 -41 0 -58 -2 -37 -4z"/>
<path d="M242 4345 c0 -16 2 -22 5 -12 2 9 2 23 0 30 -3 6 -5 -1 -5 -18z"/>
<path d="M5837 4363 c18 -2 50 -2 70 0 21 2 7 4 -32 4 -38 0 -55 -2 -38 -4z"/>
<path d="M6007 4353 c18 -2 50 -2 70 0 21 2 7 4 -32 4 -38 0 -55 -2 -38 -4z"/>
<path d="M6167 4343 c13 -2 24 -13 26 -26 4 -18 5 -17 6 6 1 23 -3 27 -26 26
-23 -1 -24 -2 -6 -6z"/>
<path d="M232 4290 c0 -14 2 -19 5 -12 2 6 2 18 0 25 -3 6 -5 1 -5 -13z"/>
<path d="M6183 4230 c0 -25 2 -35 4 -22 2 12 2 32 0 45 -2 12 -4 2 -4 -23z"/>
<path d="M222 4230 c0 -14 2 -19 5 -12 2 6 2 18 0 25 -3 6 -5 1 -5 -13z"/>
<path d="M212 4175 c0 -16 2 -22 5 -12 2 9 2 23 0 30 -3 6 -5 -1 -5 -18z"/>
<path d="M6173 4125 c0 -27 2 -38 4 -22 2 15 2 37 0 50 -2 12 -4 0 -4 -28z"/>
<path d="M202 4024 c-2 -94 0 -102 21 -120 22 -19 22 -19 5 1 -13 16 -18 44
-21 120 l-3 100 -2 -101z"/>
<path d="M6163 4015 c0 -27 2 -38 4 -22 2 15 2 37 0 50 -2 12 -4 0 -4 -28z"/>
<path d="M2044 3920 c-73 -36 -114 -78 -153 -154 l-30 -59 -6 36 c-6 30 -12
37 -31 37 -22 0 -24 -4 -24 -42 l0 -43 -29 50 c-48 85 -129 145 -223 169 -24
5 -28 3 -34 -18 -9 -37 10 -83 77 -189 32 -53 59 -98 59 -100 0 -3 -17 -8 -38
-12 -52 -8 -98 -38 -123 -77 -31 -50 -20 -122 33 -229 l43 -87 -68 2 c-64 1
-86 -8 -87 -35 0 -12 54 -18 135 -15 62 3 106 12 195 43 90 31 122 38 145 31
17 -4 75 -18 130 -29 87 -19 111 -20 184 -11 58 7 93 7 114 0 40 -15 188 -3
232 18 35 16 37 16 58 -4 29 -28 70 -42 118 -42 44 0 72 11 107 43 l22 20 23
-21 c60 -56 178 -56 226 1 10 13 15 12 36 -9 20 -20 34 -24 82 -24 32 0 90 7
128 15 60 12 75 20 105 53 19 22 44 63 55 92 11 28 23 54 27 56 3 2 18 -1 31
-7 20 -9 26 -21 31 -62 13 -95 52 -141 120 -140 48 1 90 18 81 33 -3 6 5 25
18 42 13 18 32 53 42 78 25 60 28 63 57 49 21 -9 27 -21 32 -62 12 -85 50
-137 102 -138 98 -2 203 9 238 26 107 51 98 207 -16 278 -44 27 -47 28 -76 13
-49 -25 -86 -113 -86 -203 l0 -73 -36 0 c-60 0 -76 20 -84 99 l-7 69 -54 36
c-30 20 -59 36 -64 36 -5 0 -12 -20 -15 -44 -15 -99 -86 -196 -143 -196 -42 0
-60 26 -67 99 l-7 69 -54 36 c-30 20 -59 36 -64 36 -5 0 -12 -20 -15 -44 -4
-25 -20 -72 -37 -105 -35 -69 -64 -85 -176 -96 -83 -9 -92 -1 -65 52 58 114
60 189 8 208 -25 8 -31 6 -56 -22 -25 -28 -59 -116 -75 -196 -4 -20 -16 -32
-40 -43 -66 -27 -133 -13 -155 35 -15 32 -25 140 -16 175 6 24 10 26 69 26 68
0 93 10 84 33 -5 13 -18 15 -76 10 l-71 -6 0 77 c0 69 -2 76 -20 76 -18 0 -20
-7 -20 -74 l0 -74 -115 0 -115 0 0 74 c0 67 -2 74 -20 74 -18 0 -20 -7 -20
-75 l0 -75 -60 0 c-58 0 -60 -1 -60 -26 0 -26 1 -27 55 -21 l56 6 -3 -96 c-2
-94 -2 -95 -32 -110 -16 -8 -64 -18 -107 -20 -64 -5 -83 -3 -105 12 l-27 17 5
108 c5 97 4 109 -12 113 -15 4 -18 -5 -24 -62 -3 -36 -6 -86 -6 -111 l0 -45
-60 -16 c-63 -17 -69 -13 -45 29 31 58 47 110 52 177 4 62 2 74 -19 105 -26
38 -90 69 -145 69 l-32 1 56 115 c60 125 74 183 51 203 -12 10 -27 6 -74 -18z
m20 -102 c-20 -60 -43 -102 -97 -176 -46 -63 -45 -92 2 -67 68 35 159 6 187
-60 26 -64 9 -190 -32 -236 -16 -18 -17 -18 -36 6 -19 24 -95 57 -160 69 -34
6 -37 10 -47 57 -40 183 21 365 154 461 49 36 55 24 29 -54z m-455 33 c59 -31
135 -120 166 -198 29 -72 44 -199 31 -264 -6 -31 -12 -36 -61 -51 -68 -22
-135 -63 -135 -83 0 -23 -28 -18 -44 8 -44 66 -63 200 -35 246 30 48 131 77
180 51 15 -9 21 -7 25 5 4 10 -8 31 -33 58 -77 84 -125 159 -138 215 -8 38 -6
38 44 13z m2677 -408 c29 -32 58 -124 50 -159 -5 -18 -22 -32 -59 -50 -100
-46 -144 -23 -133 68 14 116 42 168 91 168 15 0 36 -11 51 -27z m-1448 -88
c-2 -101 -14 -128 -60 -144 -66 -23 -127 -7 -148 38 -15 32 -25 140 -16 175
l6 26 111 -3 110 -2 -3 -90z m388 70 c7 -18 -33 -140 -51 -155 -37 -31 -46 30
-14 99 31 70 53 88 65 56z m-1366 -115 c0 -5 -4 -10 -10 -10 -5 0 -10 5 -10
10 0 6 5 10 10 10 6 0 10 -4 10 -10z m93 -5 c78 -23 136 -65 92 -65 -9 0 -44
7 -78 16 -54 13 -62 18 -63 40 -1 13 -1 24 0 24 0 0 23 -7 49 -15z m-158 -17
c-1 -18 -14 -28 -61 -45 -32 -12 -68 -22 -78 -22 -19 -1 -19 -1 0 20 18 21
107 67 130 68 6 1 10 -9 9 -21z"/>
<path d="M6153 3910 c0 -25 2 -35 4 -22 2 12 2 32 0 45 -2 12 -4 2 -4 -23z"/>
<path d="M252 3835 c0 -16 2 -22 5 -12 2 9 2 23 0 30 -3 6 -5 -1 -5 -18z"/>
<path d="M6143 3800 c0 -25 2 -35 4 -22 2 12 2 32 0 45 -2 12 -4 2 -4 -23z"/>
<path d="M241 3784 c0 -11 3 -14 6 -6 3 7 2 16 -1 19 -3 4 -6 -2 -5 -13z"/>
<path d="M228 3718 c-6 -52 8 -81 62 -133 23 -22 46 -49 50 -60 6 -13 9 -15 9
-5 0 8 -26 45 -58 82 -57 64 -59 68 -54 112 3 25 3 46 0 46 -3 0 -7 -19 -9
-42z"/>
<path d="M6133 3690 c0 -25 2 -35 4 -22 2 12 2 32 0 45 -2 12 -4 2 -4 -23z"/>
<path d="M2214 3665 c-28 -43 5 -135 50 -135 50 0 148 115 127 149 -11 17 -55
4 -82 -25 -27 -29 -39 -31 -39 -6 0 18 -18 42 -32 42 -4 0 -15 -11 -24 -25z"/>
<path d="M4680 3565 l0 -74 -62 -3 c-37 -2 -75 2 -90 10 -42 19 -80 -5 -112
-70 -67 -142 -30 -261 76 -244 127 21 182 114 129 219 -12 23 -15 37 -7 37 6
0 21 3 34 6 22 6 22 6 20 -95 -2 -114 9 -141 73 -173 66 -34 146 -20 198 36
20 21 22 29 12 39 -10 9 -16 7 -29 -10 -46 -60 -163 -56 -192 6 -15 32 -25
140 -16 175 6 24 10 26 69 26 68 0 93 10 84 33 -5 13 -18 15 -76 10 l-71 -6 0
77 c0 69 -2 76 -20 76 -18 0 -20 -7 -20 -75z m-112 -129 c32 -37 58 -122 47
-156 -8 -25 -96 -70 -136 -70 -44 0 -63 31 -55 92 19 158 76 211 144 134z"/>
<path d="M6123 3580 c0 -25 2 -35 4 -22 2 12 2 32 0 45 -2 12 -4 2 -4 -23z"/>
<path d="M6113 3465 c0 -27 2 -38 4 -22 2 15 2 37 0 50 -2 12 -4 0 -4 -28z"/>
<path d="M352 3480 c0 -14 2 -19 5 -12 2 6 2 18 0 25 -3 6 -5 1 -5 -13z"/>
<path d="M362 3430 c0 -14 2 -19 5 -12 2 6 2 18 0 25 -3 6 -5 1 -5 -13z"/>
<path d="M372 3380 c0 -14 2 -19 5 -12 2 6 2 18 0 25 -3 6 -5 1 -5 -13z"/>
<path d="M6103 3355 c0 -27 2 -38 4 -22 2 15 2 37 0 50 -2 12 -4 0 -4 -28z"/>
<path d="M381 3340 c0 -8 4 -22 9 -30 12 -18 12 -2 0 25 -6 13 -9 15 -9 5z"/>
<path d="M406 3270 c3 -14 11 -32 16 -40 6 -10 7 -7 2 10 -3 14 -11 32 -16 40
-6 10 -7 7 -2 -10z"/>
<path d="M6093 3235 c0 -27 2 -38 4 -22 2 15 2 37 0 50 -2 12 -4 0 -4 -28z"/>
<path d="M430 3205 c0 -5 5 -17 10 -25 5 -8 10 -10 10 -5 0 6 -5 17 -10 25 -5
8 -10 11 -10 5z"/>
<path d="M6083 3125 c0 -27 2 -38 4 -22 2 15 2 37 0 50 -2 12 -4 0 -4 -28z"/>
<path d="M450 3151 c0 -8 70 -44 76 -39 1 2 -15 13 -37 25 -21 12 -39 18 -39
14z"/>
<path d="M2524 3111 c-59 -43 -83 -73 -109 -137 -22 -55 -24 -57 -31 -31 -4
19 -12 27 -23 24 -9 -2 -15 -8 -14 -15 13 -62 25 -170 31 -277 l7 -130 38 -12
c66 -22 244 -27 311 -10 56 15 60 15 84 -4 30 -24 106 -25 206 -4 55 12 72 12
78 3 12 -21 195 -16 236 5 17 10 32 23 33 30 0 6 5 0 10 -14 9 -23 18 -28 65
-34 93 -11 214 15 214 46 0 6 14 -3 30 -21 l31 -33 82 6 c111 7 179 25 175 46
-2 9 -12 15 -23 13 -206 -31 -209 -30 -177 34 58 115 61 190 8 209 -25 8 -31
6 -56 -22 -16 -18 -38 -64 -51 -105 -13 -40 -27 -79 -33 -86 -22 -30 -85 -52
-150 -52 l-65 0 25 50 c38 76 54 169 54 321 1 152 -3 171 -34 167 -14 -2 -26
-17 -38 -51 -26 -69 -58 -259 -58 -342 0 -61 -3 -74 -22 -92 -42 -38 -85 -53
-152 -53 l-65 0 25 50 c38 76 54 169 54 321 1 152 -3 171 -34 167 -14 -2 -26
-17 -38 -51 -28 -76 -58 -262 -58 -363 l0 -92 -30 -10 c-47 -17 -166 -26 -174
-14 -4 6 2 28 12 49 57 114 60 189 9 208 -23 8 -31 5 -53 -16 -26 -27 -74
-144 -74 -182 0 -18 -10 -26 -49 -40 -27 -9 -51 -17 -54 -17 -3 0 4 27 14 61
48 155 5 249 -116 249 -25 0 -45 1 -45 3 0 2 11 37 25 78 38 110 47 156 35
179 -14 26 -20 25 -66 -9z m31 -87 c-3 -24 -24 -80 -46 -124 -42 -83 -44 -112
-6 -85 29 21 107 19 133 -3 33 -27 44 -56 44 -120 0 -53 -15 -122 -26 -122 -3
0 -17 9 -32 20 -28 21 -110 40 -169 40 l-35 0 4 138 c3 132 5 141 36 204 33
67 93 131 100 109 2 -7 1 -32 -3 -57z m604 -387 c-12 -37 -25 -70 -30 -73 -18
-11 6 251 34 371 11 47 12 42 15 -90 2 -121 0 -149 -19 -208z m290 0 c-12 -37
-25 -70 -30 -73 -18 -11 6 251 34 371 11 47 12 42 15 -90 2 -121 0 -149 -19
-208z m-543 118 c7 -18 -33 -140 -51 -155 -37 -31 -46 30 -14 99 31 70 53 88
65 56z m880 0 c7 -18 -33 -140 -51 -155 -37 -31 -46 30 -14 99 31 70 53 88 65
56z m-1235 -176 c20 -5 42 -16 49 -24 11 -14 6 -15 -46 -9 -74 8 -134 22 -134
33 0 24 39 24 131 0z"/>
<path d="M556 3093 c11 -10 30 -29 43 -43 14 -14 10 -6 -8 18 -18 23 -37 42
-43 42 -6 0 -2 -8 8 -17z"/>
<path d="M6073 3005 c0 -27 2 -38 4 -22 2 15 2 37 0 50 -2 12 -4 0 -4 -28z"/>
<path d="M611 2954 c0 -11 3 -14 6 -6 3 7 2 16 -1 19 -3 4 -6 -2 -5 -13z"/>
<path d="M6063 2890 c0 -25 2 -35 4 -22 2 12 2 32 0 45 -2 12 -4 2 -4 -23z"/>
<path d="M569 2876 c-14 -12 -44 -47 -68 -78 -32 -43 -41 -63 -38 -85 l4 -28
2 29 c1 32 56 111 103 151 17 14 29 28 27 30 -2 2 -15 -7 -30 -19z"/>
<path d="M6053 2775 c0 -27 2 -38 4 -22 2 15 2 37 0 50 -2 12 -4 0 -4 -28z"/>
<path d="M6043 2660 c0 -25 2 -35 4 -22 2 12 2 32 0 45 -2 12 -4 2 -4 -23z"/>
<path d="M453 2605 c0 -33 2 -45 4 -27 2 18 2 45 0 60 -2 15 -4 0 -4 -33z"/>
<path d="M6033 2550 c0 -25 2 -35 4 -22 2 12 2 32 0 45 -2 12 -4 2 -4 -23z"/>
<path d="M461 2516 c0 -10 15 -37 35 -60 19 -22 39 -47 45 -53 5 -7 20 -13 32
-12 l22 1 -22 6 c-25 8 -98 89 -106 117 -4 19 -5 19 -6 1z"/>
<path d="M6023 2440 c0 -25 2 -35 4 -22 2 12 2 32 0 45 -2 12 -4 2 -4 -23z"/>
<path d="M697 2349 c4 -13 8 -18 11 -10 2 7 -1 18 -6 23 -8 8 -9 4 -5 -13z"/>
<path d="M6013 2330 c0 -25 2 -35 4 -22 2 12 2 32 0 45 -2 12 -4 2 -4 -23z"/>
<path d="M710 2315 c0 -5 5 -17 10 -25 5 -8 10 -10 10 -5 0 6 -5 17 -10 25 -5
8 -10 11 -10 5z"/>
<path d="M730 2266 c0 -23 38 -99 64 -126 40 -43 91 -110 99 -130 4 -11 6 -11
6 -2 1 15 -73 115 -107 146 -12 10 -28 40 -37 67 -14 41 -25 61 -25 45z"/>
<path d="M6003 2220 c0 -25 2 -35 4 -22 2 12 2 32 0 45 -2 12 -4 2 -4 -23z"/>
<path d="M5993 2110 c0 -25 2 -35 4 -22 2 12 2 32 0 45 -2 12 -4 2 -4 -23z"/>
<path d="M5983 1995 c0 -27 2 -38 4 -22 2 15 2 37 0 50 -2 12 -4 0 -4 -28z"/>
<path d="M902 1965 c0 -16 2 -22 5 -12 2 9 2 23 0 30 -3 6 -5 -1 -5 -18z"/>
<path d="M5973 1885 c0 -27 2 -38 4 -22 2 15 2 37 0 50 -2 12 -4 0 -4 -28z"/>
<path d="M910 1889 c0 -19 4 -41 9 -48 6 -10 8 1 4 30 -7 55 -13 63 -13 18z"/>
<path d="M932 1815 c0 -5 6 -26 13 -45 7 -19 14 -28 14 -20 0 8 -6 29 -14 45
-7 17 -13 26 -13 20z"/>
<path d="M5963 1775 c0 -27 2 -38 4 -22 2 15 2 37 0 50 -2 12 -4 0 -4 -28z"/>
<path d="M982 1705 c15 -16 29 -27 31 -24 3 2 -10 15 -27 28 l-31 24 27 -28z"/>
<path d="M2063 1713 c9 -2 23 -2 30 0 6 3 -1 5 -18 5 -16 0 -22 -2 -12 -5z"/>
<path d="M2123 1703 c9 -2 25 -2 35 0 9 3 1 5 -18 5 -19 0 -27 -2 -17 -5z"/>
<path d="M5953 1670 c0 -25 2 -35 4 -22 2 12 2 32 0 45 -2 12 -4 2 -4 -23z"/>
<path d="M2042 1670 c0 -19 2 -27 5 -17 2 9 2 25 0 35 -3 9 -5 1 -5 -18z"/>
<path d="M2203 1693 c9 -2 23 -2 30 0 6 3 -1 5 -18 5 -16 0 -22 -2 -12 -5z"/>
<path d="M2273 1683 c9 -2 25 -2 35 0 9 3 1 5 -18 5 -19 0 -27 -2 -17 -5z"/>
<path d="M1045 1673 c11 -3 27 -10 35 -17 13 -10 13 -9 1 7 -7 9 -23 16 -35
16 -20 -1 -20 -2 -1 -6z"/>
<path d="M2343 1673 c9 -2 25 -2 35 0 9 3 1 5 -18 5 -19 0 -27 -2 -17 -5z"/>
<path d="M2423 1663 c9 -2 23 -2 30 0 6 3 -1 5 -18 5 -16 0 -22 -2 -12 -5z"/>
<path d="M2493 1653 c9 -2 25 -2 35 0 9 3 1 5 -18 5 -19 0 -27 -2 -17 -5z"/>
<path d="M1100 1646 c0 -3 9 -10 20 -16 11 -6 20 -8 20 -6 0 3 -9 10 -20 16
-11 6 -20 8 -20 6z"/>
<path d="M2563 1643 c9 -2 25 -2 35 0 9 3 1 5 -18 5 -19 0 -27 -2 -17 -5z"/>
<path d="M2648 1633 c12 -2 30 -2 40 0 9 3 -1 5 -23 4 -22 0 -30 -2 -17 -4z"/>
<path d="M2032 1600 c0 -19 2 -27 5 -17 2 9 2 25 0 35 -3 9 -5 1 -5 -18z"/>
<path d="M2738 1623 c12 -2 30 -2 40 0 9 3 -1 5 -23 4 -22 0 -30 -2 -17 -4z"/>
<path d="M2838 1613 c12 -2 30 -2 40 0 9 3 -1 5 -23 4 -22 0 -30 -2 -17 -4z"/>
<path d="M1210 1585 c25 -13 50 -24 55 -24 6 0 -10 11 -35 24 -25 13 -49 24
-55 24 -5 0 10 -11 35 -24z"/>
<path d="M2938 1603 c12 -2 30 -2 40 0 9 3 -1 5 -23 4 -22 0 -30 -2 -17 -4z"/>
<path d="M5942 1580 c0 -19 2 -27 5 -17 2 9 2 25 0 35 -3 9 -5 1 -5 -18z"/>
<path d="M3028 1593 c12 -2 32 -2 45 0 12 2 2 4 -23 4 -25 0 -35 -2 -22 -4z"/>
<path d="M3133 1583 c15 -2 37 -2 50 0 12 2 0 4 -28 4 -27 0 -38 -2 -22 -4z"/>
<path d="M3238 1573 c12 -2 32 -2 45 0 12 2 2 4 -23 4 -25 0 -35 -2 -22 -4z"/>
<path d="M1368 1563 c7 -3 16 -2 19 1 4 3 -2 6 -13 5 -11 0 -14 -3 -6 -6z"/>
<path d="M1530 1556 c14 -7 36 -16 50 -20 14 -3 7 3 -15 13 -45 22 -73 27 -35
7z"/>
<path d="M3348 1563 c12 -2 32 -2 45 0 12 2 2 4 -23 4 -25 0 -35 -2 -22 -4z"/>
<path d="M1315 1550 c-13 -6 -15 -9 -5 -9 8 0 22 4 30 9 18 12 2 12 -25 0z"/>
<path d="M3453 1553 c15 -2 37 -2 50 0 12 2 0 4 -28 4 -27 0 -38 -2 -22 -4z"/>
<path d="M1710 1540 c-8 -5 -10 -10 -5 -10 6 0 17 5 25 10 8 5 11 10 5 10 -5
0 -17 -5 -25 -10z"/>
<path d="M2022 1525 c0 -16 2 -22 5 -12 2 9 2 23 0 30 -3 6 -5 -1 -5 -18z"/>
<path d="M3558 1543 c12 -2 32 -2 45 0 12 2 2 4 -23 4 -25 0 -35 -2 -22 -4z"/>
<path d="M3673 1533 c15 -2 37 -2 50 0 12 2 0 4 -28 4 -27 0 -38 -2 -22 -4z"/>
<path d="M1632 1518 c15 -5 34 -6 42 -1 10 6 1 9 -27 9 -38 1 -40 0 -15 -8z"/>
<path d="M1790 1527 c0 -2 21 -18 48 -35 26 -17 63 -47 81 -66 19 -20 39 -36
43 -36 13 0 -113 110 -144 126 -16 8 -28 13 -28 11z"/>
<path d="M3793 1523 c15 -2 37 -2 50 0 12 2 0 4 -28 4 -27 0 -38 -2 -22 -4z"/>
<path d="M5933 1495 c0 -22 2 -30 4 -17 2 12 2 30 0 40 -3 9 -5 -1 -4 -23z"/>
<path d="M3908 1513 c12 -2 32 -2 45 0 12 2 2 4 -23 4 -25 0 -35 -2 -22 -4z"/>
<path d="M4023 1503 c15 -2 37 -2 50 0 12 2 0 4 -28 4 -27 0 -38 -2 -22 -4z"/>
<path d="M4143 1493 c15 -2 39 -2 55 0 15 2 2 4 -28 4 -30 0 -43 -2 -27 -4z"/>
<path d="M4288 1483 c17 -2 47 -2 65 0 17 2 3 4 -33 4 -36 0 -50 -2 -32 -4z"/>
<path d="M2011 1461 c0 -14 -9 -34 -18 -45 -17 -20 -17 -20 6 0 15 14 21 29
18 45 l-4 24 -2 -24z"/>
<path d="M4448 1473 c18 -2 45 -2 60 0 15 2 0 4 -33 4 -33 0 -45 -2 -27 -4z"/>
<path d="M4628 1463 c34 -2 90 -2 125 0 34 2 6 3 -63 3 -69 0 -97 -1 -62 -3z"/>
<path d="M4953 1453 c37 -2 96 -2 130 0 34 2 4 3 -68 3 -71 0 -99 -1 -62 -3z"/>
<path d="M5263 1443 c31 -2 83 -2 115 0 31 2 5 3 -58 3 -63 0 -89 -1 -57 -3z"/>
<path d="M5553 1433 c31 -2 83 -2 115 0 31 2 5 3 -58 3 -63 0 -89 -1 -57 -3z"/>
<path d="M5855 1430 l-70 -6 73 -2 c42 -1 72 2 72 8 0 6 -1 9 -2 8 -2 -1 -34
-4 -73 -8z"/>
</g>
</svg>
